<svg width="200" height="200" viewBox="0 0 200 200" fill="none" xmlns="http://www.w3.org/2000/svg">
<mask id="mask0_113_83" style="mask-type:luminance" maskUnits="userSpaceOnUse" x="0" y="0" width="145" height="82">
<path d="M0 0H144.667V81.2917H0V0Z" fill="white"/>
</mask>
<g mask="url(#mask0_113_83)">
<path d="M143.885 80.1823L128.641 42.2968L91.2552 8.85413L0 0.354126L55.2865 53.3541L143.885 80.1823Z" fill="#CFB061"/>
</g>
<path d="M159.401 115.385L171.271 114.786L183.828 110.729L195.859 97.526L175.5 100.557L159.401 115.385Z" fill="#8B6F28"/>
<path d="M188.615 73.6406C182.813 62.2552 184.87 63.6823 166.787 58.3854C163.901 57.5416 161.474 55.526 160.115 52.8541L177.5 58.1146C159.37 41.8854 160.901 41.9583 138.443 43.1979L152.302 77.7552C174.229 68.3854 171.156 68.3541 188.615 73.6406Z" fill="#CFB061"/>
<path d="M132.755 86.0105L96.245 74.9271L53.9585 73.5834L3.30225 97.5L54.8022 119.37L132.755 86.0105Z" fill="#AD8F42"/>
<mask id="mask1_113_83" style="mask-type:luminance" maskUnits="userSpaceOnUse" x="147" y="122" width="53" height="20">
<path d="M147.333 122.625H200V141.292H147.333V122.625Z" fill="white"/>
</mask>
<g mask="url(#mask1_113_83)">
<path d="M148.5 124.729L161.016 134.125L177.13 140.568L200 138.458L183.214 122.812L148.5 124.729Z" fill="#8B6F28"/>
</g>
<path d="M133.312 124.198L137.672 143.229L147.828 162.354L171.313 178.771L167.943 150.344L133.312 124.198Z" fill="#9B8346"/>
<path d="M111.557 138.614L106.042 165.114L115.526 199.682L135 169.625L122.573 116.812L111.557 138.614Z" fill="#9B8346"/>
<path d="M92.5835 112.755L65.7293 133.854L46.7866 174.911L89.9845 161.729L120.917 100.672L92.5835 112.755Z" fill="#AD8F42"/>
</svg>
